# xmcd CD database file
#
# Track frame offsets:
#	150
#	14459
#	28849
#	44412
#	59139
#	73856
#	88668
#	102928
#	117378
#	131472
#	146525
#	163238
#	179263
#	194453
#	209779
#
# Disc length: 3011 seconds
#
# Revision: 3
# Processed by: cddbd v1.5.2PL0 Copyright (c) Steve Scherf et al.
# Submitted via: CDex 1.51
#
DISCID=ed0bc10f
DTITLE=Louis Armstrong - Vol.03 - Walkin' My Baby Back Home
DYEAR=1900
DGENRE=Jazz
TTITLE0=Walkin' My Baby Back Home
TTITLE1=I Surrender, Dear
TTITLE2=When It's Sleepy Time Down South
TTITLE3=Blue Again
TTITLE4=Little Joe
TTITLE5=I'll Be Glad When You're Dead, You Rascal You
TTITLE6=Them There Eyes
TTITLE7=When You're Lover Has Gone
TTITLE8=Lazy River
TTITLE9=Chinatown, My Chinatown
TTITLE10=Wrap Your Troubles In A Dream
TTITLE11=Star Dust
TTITLE12=You Can Depend On Me
TTITLE13=Georgia On My Mind
TTITLE14=The Lonesome Road
EXTD=
EXTT0=
EXTT1=
EXTT2=
EXTT3=
EXTT4=
EXTT5=
EXTT6=
EXTT7=
EXTT8=
EXTT9=
EXTT10=
EXTT11=
EXTT12=
EXTT13=
EXTT14=
PLAYORDER=
